<svg width="22" height="21" viewBox="0 0 22 21" fill="none" xmlns="http://www.w3.org/2000/svg">
<g id="Group 1041">
<path id="Vector" d="M10.5 14.75C8.94 14.75 7.51 13.9 6.76 12.53C6.43 11.91 6.25 11.21 6.25 10.5C6.25 9.09 6.61 7.96 8.39 7.08C8.55 7 8.7 6.91 8.85 6.82C9.34 6.54 9.84 6.25 10.5 6.25C11.54 6.25 12.54 6.63 13.31 7.31C14.23 8.12 14.75 9.28 14.75 10.5C14.75 11.09 14.39 11.75 14.1 12.28C14.04 12.4 13.98 12.51 13.92 12.61C13.52 13.4 13.21 13.91 12.34 14.32C11.76 14.6 11.14 14.74 10.49 14.74L10.5 14.75ZM10.5 6.75C9.98 6.75 9.55 6.99 9.1 7.25C8.94 7.34 8.78 7.44 8.61 7.52C7.05 8.3 6.75 9.2 6.75 10.5C6.75 11.12 6.91 11.74 7.2 12.29C7.86 13.5 9.12 14.25 10.5 14.25C11.07 14.25 11.62 14.13 12.13 13.88C12.84 13.54 13.08 13.16 13.48 12.39C13.53 12.28 13.6 12.17 13.66 12.04C13.92 11.56 14.25 10.96 14.25 10.5C14.25 9.42 13.79 8.4 12.98 7.69C12.3 7.09 11.42 6.75 10.5 6.75Z" fill="#222836"/>
<path id="Vector_2" d="M10.5 16.75C8.21 16.75 6.1 15.5 5 13.48C4.51 12.57 4.25 11.54 4.25 10.5C4.25 8.43 4.78 6.78 7.39 5.48C7.63 5.36 7.86 5.23 8.09 5.09C8.81 4.68 9.55 4.25 10.5 4.25C12.02 4.25 13.49 4.8 14.63 5.81C15.98 7 16.75 8.71 16.75 10.5C16.75 11.36 16.22 12.33 15.79 13.12C15.69 13.3 15.6 13.46 15.52 13.62C14.93 14.78 14.48 15.53 13.22 16.14C12.37 16.55 11.46 16.76 10.5 16.76V16.75ZM10.5 4.75C9.68 4.75 9.03 5.13 8.34 5.52C8.1 5.66 7.86 5.8 7.61 5.92C5.23 7.11 4.75 8.55 4.75 10.5C4.75 11.46 4.99 12.4 5.44 13.24C6.45 15.1 8.39 16.25 10.5 16.25C11.38 16.25 12.22 16.06 13 15.68C14.09 15.15 14.47 14.58 15.08 13.39C15.16 13.23 15.25 13.06 15.35 12.88C15.75 12.15 16.25 11.23 16.25 10.5C16.25 8.85 15.54 7.28 14.3 6.19C13.25 5.26 11.9 4.75 10.5 4.75Z" fill="#222836"/>
<path id="Vector_3" d="M10.5 18.75C7.47 18.75 4.69 17.1 3.25 14.43C2.6 13.23 2.25 11.87 2.25 10.5C2.25 7.77 2.95 5.59 6.39 3.88C6.71 3.72 7.02 3.54 7.33 3.36C8.27 2.82 9.25 2.25 10.5 2.25C12.51 2.25 14.45 2.98 15.96 4.31C17.74 5.88 18.75 8.13 18.75 10.5C18.75 11.62 18.05 12.91 17.48 13.94C17.35 14.18 17.23 14.4 17.12 14.61C16.34 16.14 15.75 17.12 14.09 17.93C12.97 18.47 11.76 18.75 10.5 18.75ZM10.5 2.75C9.39 2.75 8.51 3.25 7.58 3.79C7.26 3.97 6.94 4.16 6.61 4.32C3.4 5.93 2.75 7.88 2.75 10.5C2.75 11.79 3.07 13.07 3.69 14.19C5.05 16.69 7.66 18.25 10.5 18.25C11.68 18.25 12.82 17.99 13.87 17.48C15.34 16.77 15.88 15.95 16.68 14.39C16.79 14.18 16.91 13.95 17.04 13.71C17.58 12.72 18.25 11.5 18.25 10.51C18.25 8.29 17.29 6.17 15.63 4.7C14.21 3.45 12.39 2.76 10.51 2.76L10.5 2.75Z" fill="#222836"/>
<path id="Vector_4" d="M10.5 21C6.65 21 3.11 18.89 1.27 15.5C0.44 13.97 0 12.24 0 10.5C0 7.01 0.9 4.24 5.28 2.05C5.68 1.85 6.07 1.63 6.45 1.41C7.65 0.72 8.9 0 10.51 0C13.07 0 15.54 0.93 17.45 2.62C19.71 4.62 21.01 7.49 21.01 10.5C21.01 11.95 20.12 13.58 19.4 14.9C19.24 15.19 19.09 15.47 18.96 15.73C17.97 17.67 17.21 18.93 15.08 19.96C13.65 20.65 12.11 21 10.51 21H10.5ZM10.5 1C9.16 1 8.08 1.62 6.94 2.28C6.54 2.51 6.14 2.74 5.72 2.95C1.79 4.91 1 7.29 1 10.5C1 12.08 1.4 13.65 2.15 15.03C3.82 18.1 7.02 20 10.5 20C11.95 20 13.34 19.68 14.63 19.06C16.42 18.19 17.05 17.24 18.05 15.28C18.18 15.02 18.34 14.73 18.51 14.43C19.17 13.22 20 11.71 20 10.51C20 7.79 18.83 5.19 16.78 3.38C15.05 1.85 12.81 1.01 10.5 1.01V1Z" fill="#222836"/>
</g>
</svg>
