<svg width="24" height="24" viewBox="0 0 24 24" fill="none" xmlns="http://www.w3.org/2000/svg">
<g id="outline/time">
<path id="Vector" d="M12.0001 12.5C11.9345 12.5008 11.8695 12.4879 11.8092 12.462C11.7489 12.4362 11.6947 12.398 11.6501 12.35C11.6022 12.3051 11.5641 12.2509 11.538 12.1907C11.512 12.1305 11.4985 12.0656 11.4985 12C11.4985 11.9344 11.512 11.8695 11.538 11.8093C11.5641 11.7491 11.6022 11.6949 11.6501 11.65L16.6501 6.65C16.696 6.60404 16.7506 6.56758 16.8106 6.5427C16.8707 6.51783 16.9351 6.50503 17.0001 6.50503C17.0651 6.50503 17.1294 6.51783 17.1895 6.5427C17.2495 6.56758 17.3041 6.60404 17.3501 6.65C17.396 6.69596 17.4325 6.75053 17.4573 6.81058C17.4822 6.87063 17.495 6.935 17.495 7C17.495 7.065 17.4822 7.12937 17.4573 7.18942C17.4325 7.24947 17.396 7.30404 17.3501 7.35L12.3501 12.35C12.3054 12.398 12.2512 12.4362 12.1909 12.462C12.1306 12.4879 12.0656 12.5008 12.0001 12.5Z" fill="#282B33"/>
<path id="Vector_2" d="M12.0001 12.4998C11.9069 12.5027 11.8154 12.4745 11.7401 12.4198L8.10005 10.1698C8.0364 10.1393 7.97992 10.0957 7.93433 10.0418C7.88873 9.98799 7.85505 9.92509 7.83549 9.85729C7.81594 9.78949 7.81096 9.71832 7.82088 9.64846C7.8308 9.57859 7.8554 9.51162 7.89305 9.45194C7.93071 9.39226 7.98057 9.34123 8.03935 9.3022C8.09814 9.26317 8.16452 9.23703 8.23414 9.22548C8.30375 9.21394 8.37502 9.21727 8.44325 9.23524C8.51149 9.25321 8.57515 9.28542 8.63005 9.32975L12.2601 11.5798C12.35 11.6378 12.4189 11.7231 12.4567 11.8232C12.4945 11.9233 12.4992 12.0329 12.4701 12.1359C12.441 12.2388 12.3796 12.3297 12.295 12.3952C12.2104 12.4607 12.107 12.4974 12.0001 12.4998Z" fill="#282B33"/>
<path id="Union" fill-rule="evenodd" clip-rule="evenodd" d="M12 22.5H11.998C9.922 22.4996 7.89268 21.8838 6.16652 20.7304C4.4398 19.5767 3.09399 17.9368 2.29927 16.0182C1.50455 14.0995 1.29661 11.9883 1.70176 9.95155C2.1069 7.91475 3.10693 6.04383 4.57538 4.57538C6.04384 3.10692 7.91476 2.1069 9.95156 1.70175C11.9884 1.29661 14.0996 1.50454 16.0182 2.29926C17.9368 3.09398 19.5767 4.43979 20.7304 6.16651C21.8842 7.89323 22.5 9.92329 22.5 12L22.5 12.0026C22.4967 14.7856 21.3897 17.4537 19.4217 19.4217C17.4531 21.3903 14.784 22.4973 12 22.5ZM10.1466 21.3175C10.5949 21.4066 11.0472 21.463 11.5 21.4868V21C11.5 20.8674 11.5527 20.7402 11.6465 20.6464C11.7402 20.5527 11.8674 20.5 12 20.5C12.1326 20.5 12.2598 20.5527 12.3536 20.6464C12.4473 20.7402 12.5 20.8674 12.5 21V21.4868C13.5723 21.4303 14.6329 21.1921 15.6355 20.7769C16.6385 20.3614 17.5573 19.7795 18.3557 19.0608L18.01 18.72C17.961 18.674 17.9217 18.6187 17.8945 18.5572C17.8674 18.4957 17.8529 18.4293 17.852 18.3621C17.851 18.2949 17.8637 18.2282 17.8891 18.166C17.9145 18.1038 17.9523 18.0473 18 18C18.0952 17.9078 18.2225 17.8562 18.355 17.8562C18.4875 17.8562 18.6149 17.9078 18.71 18L19.0608 18.3558C19.3644 18.0184 19.6447 17.6584 19.899 17.2779C20.85 15.8545 21.3971 14.2034 21.4868 12.5H21C20.8674 12.5 20.7402 12.4473 20.6465 12.3536C20.5527 12.2598 20.5 12.1326 20.5 12C20.5 11.8674 20.5527 11.7402 20.6465 11.6464C20.7402 11.5527 20.8674 11.5 21 11.5H21.4863C21.3698 9.3291 20.5125 7.26286 19.0579 5.64716L18.71 6C18.6155 6.08965 18.4903 6.13974 18.36 6.14C18.2937 6.1417 18.2277 6.1302 18.1659 6.10616C18.1041 6.08213 18.0477 6.04604 18 6C17.9531 5.95352 17.9159 5.89822 17.8906 5.83729C17.8652 5.77636 17.8521 5.711 17.8521 5.645C17.8521 5.57899 17.8652 5.51364 17.8906 5.45271C17.9159 5.39178 17.9531 5.33648 18 5.29L18.3528 4.94213C16.7371 3.48748 14.6709 2.63017 12.5 2.51366V3C12.5 3.13261 12.4473 3.25979 12.3536 3.35355C12.2598 3.44732 12.1326 3.5 12 3.5C11.8674 3.5 11.7402 3.44732 11.6465 3.35355C11.5527 3.25979 11.5 3.13261 11.5 3V2.51316C9.79665 2.60292 8.14545 3.14997 6.72209 4.10104C6.33966 4.35657 5.97788 4.63845 5.63901 4.94394L5.99001 5.29C6.03754 5.33581 6.07552 5.39059 6.10176 5.45116C6.12801 5.51174 6.142 5.57691 6.14293 5.64291C6.14386 5.70892 6.13171 5.77446 6.10718 5.83575C6.08265 5.89704 6.04623 5.95286 6.00001 6C5.95229 6.04604 5.89588 6.08213 5.83408 6.10616C5.77227 6.1302 5.7063 6.1417 5.64001 6.14C5.5063 6.14234 5.37701 6.09206 5.28001 6L4.93448 5.64953C4.21798 6.44672 3.6377 7.3637 3.22315 8.3645C2.80788 9.36706 2.56969 10.4277 2.51317 11.5H3.00001C3.13262 11.5 3.25979 11.5527 3.35356 11.6464C3.44733 11.7402 3.50001 11.8674 3.50001 12C3.50001 12.1326 3.44733 12.2598 3.35356 12.3536C3.25979 12.4473 3.13262 12.5 3.00001 12.5H2.51317C2.53703 12.9528 2.59337 13.4051 2.68254 13.8534C3.01661 15.5328 3.79769 17.0876 4.93918 18.3557L5.28001 18.01C5.37427 17.9134 5.50298 17.8581 5.63794 17.8562C5.7729 17.8544 5.9031 17.9061 6.00001 18C6.04687 18.0465 6.08407 18.1018 6.10945 18.1627C6.13484 18.2236 6.14791 18.289 6.14791 18.355C6.14791 18.421 6.13484 18.4864 6.10945 18.5473C6.08407 18.6082 6.04687 18.6635 6.00001 18.71L5.64424 19.0608C6.91237 20.2023 8.46718 20.9834 10.1466 21.3175Z" fill="#282B33"/>
</g>
</svg>
