<svg width="186" height="33" viewBox="0 0 186 33" fill="none" xmlns="http://www.w3.org/2000/svg">
<path d="M13.4808 33C13.4808 33 9.95598 23.7678 11.4839 13.8544L7.20349 15.4244C7.20349 15.4244 7.20349 8.16302 14.0701 0L22.1963 2.00414C22.1963 2.00414 18.1325 4.478 15.8249 8.25H22.1963C22.1963 8.25 12.6399 16.1144 13.4808 33Z" fill="#194731"/>
<path d="M5.63621 11.5975L0.768659 13.6748C0.768659 13.6748 -0.964226 17.7948 0.77377 23.605L3.38842 21.0978C3.38842 21.0978 3.58388 25.7882 9.9524 32.2392C9.9524 32.2392 4.97617 23.2172 6.75136 15.7131L3.29725 17.9216C3.29725 17.9216 3.94344 14.0162 5.63621 11.5975Z" fill="#194731"/>
<path d="M23.3994 12.2279C23.3994 12.2279 17.8813 15.5752 16.7829 20.6533H20.1707C20.1707 20.6533 16.7887 24.9718 15.4373 32.2375C15.4373 32.2375 19.4486 23.2888 26.9257 18.5535L22.8546 18.2469C22.8546 18.2469 24.9405 16.4058 27.7637 15.2425L23.3994 12.2279Z" fill="#194731"/>
<path d="M38.0467 13.6448H65.8802V16.496H38.0467V13.6448ZM65.5371 10.1439V12.8689H38.3599V10.1439H65.5371ZM38.3599 8.93362V6.08239H65.5371V8.93362H38.3599ZM44.2452 24.1549H65.5371V26.943H38.3599V21.4262L59.6593 20.06H38.3599V17.2385H65.5371V22.7553L44.2452 24.1549Z" fill="#194731"/>
<path d="M75.2515 14.0459H86.0671V16.8971H69.3551V11.165L79.5964 8.9635H69.3551V6.08259H86.041V11.8147L75.2515 14.0459ZM69.6758 18.1297H74.4422V19.2769H91.7808V18.1297H96.5434V26.9321H69.6907L69.6758 18.1297ZM74.4422 23.8321H91.7808V22.3471H74.4422V23.8321ZM92.3439 12.832H91.3593V16.8897H87.1412V5.75217H91.3593V9.59461H92.3551V5.75217H96.5434V16.8897H92.3402L92.3439 12.832Z" fill="#194731"/>
<path d="M100.496 6.0828H121.419V9.30528H105.263V10.2965H121.419V13.3333H105.263V14.358H121.419V17.5804H100.496V6.0828ZM100.496 18.6348H128.237V26.9397H100.496V18.6348ZM105.263 23.19H123.474V22.4141H105.263V23.19ZM123.474 5.77467H128.237V17.5804H123.474V5.77467Z" fill="#194731"/>
<path d="M131.073 6.0828H149.844V17.6732H135.836V22.5998H149.844V26.9397H131.073V13.3333H145.067V10.4227H131.073V6.0828ZM151.806 5.77467H156.568V27.2478H151.806V5.77467Z" fill="#194731"/>
<path d="M159.216 22.5362H185.927V26.9393H159.216V22.5362ZM160.085 6.08239H184.741L183.279 20.1528H178.259L179.005 10.4223H160.085V6.08239Z" fill="#194731"/>
<path d="M46.7106 7.95749H42.5559V11.4918H46.7106V7.95749Z" fill="#194731"/>
<path d="M61.7149 7.95749H57.5602V11.4918H61.7149V7.95749Z" fill="#194731"/>
</svg>
