<svg width="25" height="25" viewBox="0 0 25 25" fill="none" xmlns="http://www.w3.org/2000/svg">
<path d="M8.66669 9C8.66669 10.3807 7.5474 11.5 6.16669 11.5C4.78597 11.5 3.66669 10.3807 3.66669 9C3.66669 7.61929 4.78597 6.5 6.16669 6.5C7.5474 6.5 8.66669 7.61929 8.66669 9Z" fill="#1570FF"/>
<path d="M21.6667 9C21.6667 10.3807 20.5474 11.5 19.1667 11.5C17.786 11.5 16.6667 10.3807 16.6667 9C16.6667 7.61929 17.786 6.5 19.1667 6.5C20.5474 6.5 21.6667 7.61929 21.6667 9Z" fill="#1570FF"/>
<path d="M8.66669 14.5C8.66669 12.2909 10.4575 10.5 12.6667 10.5C14.8758 10.5 16.6667 12.2909 16.6667 14.5V22.5H8.66669V14.5Z" fill="#1570FF"/>
<path d="M17.6667 22.5V14.5C17.6667 13.9637 17.5823 13.4472 17.426 12.9629C17.9387 12.6684 18.533 12.5 19.1667 12.5C21.0997 12.5 22.6667 14.067 22.6667 16V22.5H17.6667Z" fill="#1570FF"/>
<path d="M7.66669 22.5V14.5C7.66669 13.9637 7.75112 13.4472 7.9074 12.9629C7.3947 12.6684 6.80036 12.5 6.16669 12.5C4.23369 12.5 2.66669 14.067 2.66669 16V22.5H7.66669Z" fill="#1570FF"/>
<path d="M15.6667 6.5C15.6667 8.15685 14.3235 9.5 12.6667 9.5C11.0098 9.5 9.66669 8.15685 9.66669 6.5C9.66669 4.84315 11.0098 3.5 12.6667 3.5C14.3235 3.5 15.6667 4.84315 15.6667 6.5Z" fill="#1570FF"/>
</svg>
