<svg width="64" height="64" viewBox="0 0 64 64" fill="none" xmlns="http://www.w3.org/2000/svg">
<path d="M38.5024 34.4769C38.5425 34.3099 38.5768 34.1372 38.6026 33.9645C41.1776 34.1027 46.0415 35.2339 48.5106 41.4485C48.5742 41.6091 48.6843 41.7469 48.8266 41.8439C48.9689 41.9409 49.1369 41.9927 49.3088 41.9925C49.4178 41.9927 49.5257 41.9711 49.6264 41.9292C49.7313 41.8873 49.8269 41.825 49.9079 41.7459C49.9888 41.6668 50.0535 41.5724 50.0982 41.4682C50.1428 41.3639 50.1666 41.2518 50.1681 41.1383C50.1696 41.0247 50.1489 40.912 50.1071 40.8066C47.3118 33.7688 41.6725 32.4361 38.6626 32.2547C38.6626 32.082 38.6283 31.9093 38.6026 31.7395C41.5982 31.5697 47.2918 30.2686 50.1071 23.1819C50.1907 22.9693 50.1869 22.732 50.0968 22.5221C50.0067 22.3122 49.8375 22.1468 49.6264 22.0622C49.4151 21.9771 49.1788 21.9799 48.9696 22.0701C48.7603 22.1602 48.5952 22.3303 48.5106 22.5429C45.8755 29.1806 40.5281 30.0268 38.1219 30.0527C38.0847 29.9664 38.0447 29.88 38.0046 29.7937C38.6369 29.4742 41.6067 27.8709 44.5852 24.3649C47.6008 20.8129 51.2 14.5466 51.2 4.86353C51.2 4.63451 51.1096 4.41488 50.9486 4.25293C50.7876 4.09099 50.5693 4 50.3417 4C50.114 4 49.8958 4.09099 49.7348 4.25293C49.5738 4.41488 49.4833 4.63451 49.4833 4.86353C49.4833 13.9767 46.1387 19.8516 43.3349 23.1761C40.2878 26.7886 37.192 28.271 37.1606 28.2854C37.1329 28.299 37.1062 28.3144 37.0805 28.3314C36.5666 27.7017 35.9492 27.1653 35.2551 26.7454C36.3366 25.8819 37.6412 24.388 37.6412 22.2666C37.6412 22.0375 37.5508 21.8179 37.3898 21.656C37.2289 21.494 37.0106 21.403 36.7829 21.403C36.5553 21.403 36.3369 21.494 36.176 21.656C36.015 21.8179 35.9246 22.0375 35.9246 22.2666C35.9246 24.2469 34.0935 25.5278 33.3811 25.951C32.8006 25.8006 32.2037 25.7242 31.6043 25.7236C31.0049 25.7237 30.4079 25.8001 29.8275 25.951C29.1123 25.5278 27.2812 24.2469 27.2812 22.2666C27.2812 22.0375 27.1908 21.8179 27.0298 21.656C26.8688 21.494 26.6505 21.403 26.4229 21.403C26.1952 21.403 25.9769 21.494 25.8159 21.656C25.6549 21.8179 25.5645 22.0375 25.5645 22.2666C25.5645 24.388 26.8692 25.8732 27.9507 26.7454C27.2566 27.1653 26.6392 27.7017 26.1253 28.3314C26.0996 28.3144 26.0728 28.299 26.0452 28.2854C26.0166 28.271 22.9208 26.7886 19.8709 23.1761C14.7896 17.1516 13.7253 9.89504 13.7253 4.86353C13.7253 4.63451 13.6348 4.41488 13.4739 4.25293C13.3129 4.09099 13.0946 4 12.8669 4C12.6393 4 12.421 4.09099 12.26 4.25293C12.099 4.41488 12.0086 4.63451 12.0086 4.86353C12.0086 14.5466 15.605 20.8129 18.6235 24.3649C21.6019 27.8709 24.5717 29.4742 25.204 29.7937L25.0924 30.0412C22.692 29.9952 17.3102 29.123 14.698 22.5573C14.6134 22.3447 14.4483 22.1746 14.239 22.0844C14.0298 21.9943 13.7935 21.9915 13.5822 22.0766C13.3716 22.1617 13.203 22.3273 13.1135 22.5372C13.024 22.747 13.0207 22.984 13.1044 23.1963C15.9169 30.283 21.6104 31.5841 24.606 31.7539C24.5803 31.9237 24.5603 32.0964 24.5459 32.2691C21.5361 32.4505 15.8968 33.7832 13.1015 40.821C13.0169 41.0336 13.0197 41.2713 13.1093 41.4818C13.1989 41.6923 13.368 41.8584 13.5793 41.9436C13.68 41.9855 13.7879 42.007 13.8969 42.0069C14.0688 42.0071 14.2368 41.9553 14.3791 41.8583C14.5215 41.7613 14.6316 41.6235 14.6952 41.4629C17.1672 35.2368 22.0225 34.1056 24.6032 33.9789C24.6289 34.1516 24.6633 34.3243 24.7033 34.4913C22.396 35.8436 20.3366 37.5845 18.6149 39.6379C15.5964 43.1899 12 49.4563 12 59.1365C12 59.3655 12.0904 59.5851 12.2514 59.7471C12.4124 59.909 12.6307 60 12.8583 60C13.086 60 13.3043 59.909 13.4653 59.7471C13.6262 59.5851 13.7167 59.3655 13.7167 59.1365C13.7167 50.0262 17.0584 44.1513 19.8623 40.8238C21.4092 38.9718 23.2452 37.3852 25.2984 36.1262C25.5368 36.5908 25.8246 37.028 26.1568 37.4302C24.3311 38.4177 22.8057 39.8845 21.7427 41.6747C20.6797 43.4649 20.1188 45.5115 20.1198 47.5968C20.1198 49.1125 20.4166 50.6133 20.9932 52.0135C21.5698 53.4138 22.415 54.686 23.4804 55.7576C24.5458 56.8292 25.8106 57.6791 27.2025 58.2589C28.5945 58.8386 30.0863 59.1368 31.5929 59.1365C33.1003 59.1384 34.5934 58.8413 35.9867 58.2622C37.38 57.6831 38.6461 56.8334 39.7128 55.7617C40.7794 54.6899 41.6256 53.4172 42.2029 52.0162C42.7802 50.6152 43.0773 49.1134 43.0773 47.5968C43.0783 45.5115 42.5175 43.4649 41.4545 41.6747C40.3914 39.8845 38.866 38.4177 37.0404 37.4302C37.3726 37.028 37.6604 36.5908 37.8987 36.1262C39.9525 37.3844 41.7887 38.9711 43.3349 40.8238C48.4162 46.8484 49.4833 54.1078 49.4833 59.1365C49.4833 59.3655 49.5738 59.5851 49.7348 59.7471C49.8958 59.909 50.114 60 50.3417 60C50.5693 60 50.7876 59.909 50.9486 59.7471C51.1096 59.5851 51.2 59.3655 51.2 59.1365C51.2 49.4563 47.6008 43.1899 44.5852 39.6379C42.8657 37.5805 40.8083 35.8348 38.5024 34.4769Z" fill="#202837"/>
</svg>
