<svg width="64" height="64" viewBox="0 0 64 64" fill="none" xmlns="http://www.w3.org/2000/svg">
<path d="M31.8862 59C39.9589 57.2213 40.2863 49.6886 40.2863 49.6886C41.3447 52.9347 39.044 56.4654 39.044 56.4654C56.158 49.6886 48.9105 35.0499 48.9105 35.0499C52.4132 36.7842 52.615 44.2324 52.615 44.2324C60.6877 28.0108 51.2112 21.483 51.2112 21.483C53.4985 21.1761 56.7634 26.7657 56.7634 26.7657C53.9246 4.31417 39.5104 12.9008 39.5104 12.9008C40.6585 9.40567 45.8295 9.94373 45.8295 9.94373C43.5602 7 31.8817 7 31.8817 7C31.8817 7 20.2212 7 17.9295 9.94373C17.9295 9.94373 23.1049 9.40567 24.2486 12.9008C24.2486 12.9008 9.83889 4.31417 7 26.7657C7 26.7657 10.2649 21.1761 12.5477 21.483C12.5477 21.483 3.09373 28.0108 11.1485 44.2324C11.1485 44.2324 11.3503 36.7842 14.8484 35.0499C14.8484 35.0499 7.60993 49.6886 24.715 56.4654C24.715 56.4654 22.4143 52.9347 23.4727 49.6886C23.4862 49.6886 23.7866 57.2346 31.8862 59Z" fill="#5C132D"/>
<path d="M20.4815 27.7126C23.4513 27.7126 25.8588 25.3255 25.8588 22.3809C25.8588 19.4364 23.4513 17.0493 20.4815 17.0493C17.5117 17.0493 15.1042 19.4364 15.1042 22.3809C15.1042 25.3255 17.5117 27.7126 20.4815 27.7126Z" fill="#FFAA00"/>
<path d="M20.4814 25.3607C22.1409 25.3607 23.4862 24.0268 23.4862 22.3814C23.4862 20.736 22.1409 19.4021 20.4814 19.4021C18.8219 19.4021 17.4766 20.736 17.4766 22.3814C17.4766 24.0268 18.8219 25.3607 20.4814 25.3607Z" fill="#E7900A"/>
<path d="M43.2911 27.7126C46.2609 27.7126 48.6684 25.3255 48.6684 22.3809C48.6684 19.4364 46.2609 17.0493 43.2911 17.0493C40.3213 17.0493 37.9138 19.4364 37.9138 22.3809C37.9138 25.3255 40.3213 27.7126 43.2911 27.7126Z" fill="#FFAA00"/>
<path d="M43.2912 25.3607C44.9507 25.3607 46.296 24.0268 46.296 22.3814C46.296 20.736 44.9507 19.4021 43.2912 19.4021C41.6317 19.4021 40.2864 20.736 40.2864 22.3814C40.2864 24.0268 41.6317 25.3607 43.2912 25.3607Z" fill="#E7900A"/>
<path d="M31.8863 44.29H36.1782L46.7444 35.1832V25.4004L41.7169 20.509C41.4796 20.2671 41.1959 20.0747 40.8824 19.9434C40.5689 19.812 40.232 19.7443 39.8916 19.7441H35.6221L33.7564 20.5534L31.8862 24.0536L30.0161 20.5534L28.1459 19.7441H23.8808C23.5405 19.7443 23.2036 19.812 22.8901 19.9434C22.5766 20.0747 22.2928 20.2671 22.0555 20.509L17.0281 25.4004V35.1832L27.6077 44.29H31.8997" fill="#FEB700"/>
<path d="M25.8541 26.6638H25.3967C24.8493 26.6638 24.4055 27.1038 24.4055 27.6465V31.3284C24.4055 31.8712 24.8493 32.3112 25.3967 32.3112H25.8541C26.4015 32.3112 26.8453 31.8712 26.8453 31.3284V27.6465C26.8453 27.1038 26.4015 26.6638 25.8541 26.6638Z" fill="#202837"/>
<path d="M38.3758 26.6638H37.9184C37.371 26.6638 36.9272 27.1038 36.9272 27.6465V31.3284C36.9272 31.8712 37.371 32.3112 37.9184 32.3112H38.3758C38.9232 32.3112 39.367 31.8712 39.367 31.3284V27.6465C39.367 27.1038 38.9232 26.6638 38.3758 26.6638Z" fill="#202837"/>
<path d="M34.8821 35.6237C34.7102 34.9655 34.3227 34.3827 33.7805 33.9665C33.2382 33.5504 32.572 33.3247 31.8863 33.3247C31.2004 33.3239 30.5338 33.5494 29.9914 33.9656C29.449 34.3818 29.0617 34.9652 28.8904 35.6237L27.0068 42.8051C26.8133 43.5362 26.8996 44.3123 27.249 44.984L28.433 47.2563C28.6935 47.7567 29.0877 48.1764 29.5726 48.4697C30.0574 48.763 30.6142 48.9186 31.1822 48.9194H32.5859C33.1545 48.9189 33.7121 48.7635 34.1977 48.4702C34.6833 48.1769 35.0783 47.757 35.3396 47.2563L36.5191 44.984C36.87 44.3129 36.9579 43.5367 36.7658 42.8051L34.8821 35.6237Z" fill="#FFD68F"/>
<path d="M31.8861 38.3136C33.397 38.3136 34.6219 37.6128 34.6219 36.7484C34.6219 35.8839 33.397 35.1831 31.8861 35.1831C30.3752 35.1831 29.1504 35.8839 29.1504 36.7484C29.1504 37.6128 30.3752 38.3136 31.8861 38.3136Z" fill="#202837"/>
<path d="M31.8864 38.3142C31.8864 38.3142 31.4109 41.4714 28.5093 41.4714" stroke="#202837" stroke-width="3" stroke-linecap="round" stroke-linejoin="round"/>
<path d="M31.8862 38.3142C31.8862 38.3142 32.3616 41.4714 35.2588 41.4714" stroke="#202837" stroke-width="3" stroke-linecap="round" stroke-linejoin="round"/>
</svg>
