<svg width="64" height="64" viewBox="0 0 64 64" fill="none" xmlns="http://www.w3.org/2000/svg">
<g clip-path="url(#clip0_12215_77944)">
<path fill-rule="evenodd" clip-rule="evenodd" d="M53.2885 23.1879L58.5154 28.4149C60.4964 30.3959 60.4965 33.6077 58.5155 35.5887L53.2885 40.8158V48.2158C53.2885 51.0174 51.0174 53.2886 48.2158 53.2886H40.8157L35.5868 58.5174C33.6058 60.4984 30.3939 60.4984 28.4129 58.5174L23.1841 53.2886H15.7898C12.9882 53.2886 10.7171 51.0174 10.7171 48.2158V40.8216L5.48428 35.5887C3.50328 33.6077 3.50329 30.3959 5.48429 28.4149L10.7171 23.1821V15.7899C10.7171 12.9883 12.9882 10.7172 15.7898 10.7172H23.182L28.413 5.48624C30.394 3.50524 33.6058 3.50524 35.5868 5.48624L40.8177 10.7172H48.2158C51.0174 10.7172 53.2885 12.9883 53.2885 15.7899V23.1879Z" fill="#FFAA00"/>
<path d="M32.0001 51.8002C42.9354 51.8002 51.8002 42.9354 51.8002 32.0001C51.8002 21.0648 42.9354 12.2 32.0001 12.2C21.0648 12.2 12.2 21.0648 12.2 32.0001C12.2 42.9354 21.0648 51.8002 32.0001 51.8002Z" fill="#FFCF00"/>
<path d="M41.1697 36.8887C41.1697 39.3167 40.2056 41.6454 38.4892 43.3629C36.7729 45.0803 34.4447 46.0459 32.0167 46.0473C29.5881 46.0459 27.2593 45.0805 25.5421 43.3632C23.8248 41.6459 22.8594 39.3172 22.8579 36.8887" fill="#FF3523"/>
<path d="M32 35.1773C33.2284 35.1773 34.2242 34.9177 34.2242 34.5976C34.2242 34.2774 33.2284 34.0178 32 34.0178C30.7717 34.0178 29.7759 34.2774 29.7759 34.5976C29.7759 34.9177 30.7717 35.1773 32 35.1773Z" fill="#FF9200"/>
<path d="M25.1045 32.602C26.3544 32.602 27.3677 30.8051 27.3677 28.5885C27.3677 26.3719 26.3544 24.575 25.1045 24.575C23.8546 24.575 22.8413 26.3719 22.8413 28.5885C22.8413 30.8051 23.8546 32.602 25.1045 32.602Z" fill="#202837"/>
<path d="M38.8955 32.602C40.1454 32.602 41.1587 30.8051 41.1587 28.5885C41.1587 26.3719 40.1454 24.575 38.8955 24.575C37.6456 24.575 36.6323 26.3719 36.6323 28.5885C36.6323 30.8051 37.6456 32.602 38.8955 32.602Z" fill="#202837"/>
</g>
<defs>
<clipPath id="clip0_12215_77944">
<rect width="56" height="56" fill="white" transform="translate(4 4)"/>
</clipPath>
</defs>
</svg>
