<svg width="64" height="64" viewBox="0 0 64 64" fill="none" xmlns="http://www.w3.org/2000/svg">
<path d="M32.0122 59C46.9171 59 58.9998 46.9117 58.9998 32C58.9998 17.0883 46.9171 5 32.0122 5C17.1074 5 5.02466 17.0883 5.02466 32C5.02466 46.9117 17.1074 59 32.0122 59Z" fill="#1570FF"/>
<path d="M58.9876 32C58.9876 28.4196 57.5658 24.9858 55.0353 22.4541C52.5047 19.9223 49.0726 18.5 45.4938 18.5C43.7197 18.4968 41.9623 18.8435 40.3223 19.5205C38.6823 20.1975 37.1918 21.1914 35.9362 22.4453C34.6805 23.6992 33.6844 25.1886 33.0047 26.8281C32.325 28.4676 31.9752 30.2251 31.9752 32C31.9752 35.5805 30.5536 39.0142 28.023 41.546C25.4924 44.0777 22.0602 45.5 18.4814 45.5C14.9048 45.4967 11.4757 44.073 8.94781 41.5416C6.41992 39.0102 5 35.5783 5 32C4.99837 28.4549 5.69486 24.9442 7.04976 21.6685C8.40466 18.3928 10.3915 15.4162 12.8965 12.9089C15.4016 10.4015 18.3758 8.41255 21.6494 7.05552C24.9229 5.69849 28.4317 5.00001 31.9752 5.00001C35.5213 4.99675 39.0334 5.69272 42.3106 7.04813C45.5877 8.40355 48.5656 10.3919 51.0743 12.8994C53.5829 15.4069 55.5731 18.3844 56.9309 21.6618C58.2887 24.9392 58.9876 28.4522 58.9876 32Z" fill="#FF4D37"/>
</svg>
