<svg width="27" height="32" viewBox="0 0 27 32" fill="none" xmlns="http://www.w3.org/2000/svg">
<g id="Group 1020">
<path id="Vector" d="M13.0176 32C13.0176 32 9.61515 23.0476 11.09 13.4345L6.95825 14.957C6.95825 14.957 6.95824 7.91566 13.5864 0L21.4304 1.94341C21.4304 1.94341 17.5077 4.3423 15.2802 8H21.4304C21.4304 8 12.2059 15.6261 13.0176 32Z" fill="#194731"/>
<path id="Vector_2" d="M5.44047 11.2457L0.741964 13.2601C0.741964 13.2601 -0.930738 17.2552 0.746897 22.8894L3.27074 20.4582C3.27074 20.4582 3.45941 25.0064 9.60675 31.2619C9.60675 31.2619 4.80335 22.5133 6.51689 15.2366L3.18274 17.3782C3.18274 17.3782 3.80648 13.5912 5.44047 11.2457Z" fill="#194731"/>
<path id="Vector_3" d="M22.5918 11.8574C22.5918 11.8574 17.2654 15.1032 16.2051 20.0275H19.4752C19.4752 20.0275 16.2108 24.2152 14.9062 31.2607C14.9062 31.2607 18.7783 22.5831 25.9957 17.9913L22.066 17.694C22.066 17.694 24.0794 15.9087 26.8046 14.7806L22.5918 11.8574Z" fill="#194731"/>
</g>
</svg>
