<svg width="64" height="64" viewBox="0 0 64 64" fill="none" xmlns="http://www.w3.org/2000/svg">
<path d="M48.1131 34.7827L45.8454 21.4532C46.4744 21.3401 47.0435 21.0077 47.4526 20.5144C47.8616 20.0212 48.0845 19.3988 48.0818 18.7568C48.0818 18.0321 47.7953 17.3371 47.2853 16.8247C46.7753 16.3123 46.0836 16.0244 45.3624 16.0244C44.6412 16.0244 43.9494 16.3123 43.4394 16.8247C42.9294 17.3371 42.6429 18.0321 42.6429 18.7568C42.6429 19.1914 42.7465 19.6198 42.9449 20.006C43.1433 20.3922 43.4309 20.7251 43.7835 20.9769L33.9434 34.7782L48.1131 34.7827Z" fill="#FEB700"/>
<path d="M30.0386 34.7831L20.1985 20.9818C20.5511 20.73 20.8387 20.3971 21.0371 20.0109C21.2355 19.6247 21.339 19.1964 21.339 18.7617C21.3378 18.0366 21.0503 17.3416 20.5396 16.8293C20.0289 16.317 19.3368 16.0293 18.6151 16.0293C17.8939 16.0293 17.2022 16.3172 16.6922 16.8296C16.1822 17.342 15.8957 18.037 15.8957 18.7617C15.895 19.4074 16.1219 20.0324 16.5362 20.526C16.9505 21.0196 17.5254 21.3498 18.1589 21.4582L15.8867 34.7876L30.0386 34.7831Z" fill="#FEB700"/>
<path d="M56.2939 19.6602C55.5727 19.6602 54.881 19.9481 54.371 20.4606C53.861 20.973 53.5745 21.668 53.5745 22.3926C53.5728 22.9659 53.753 23.5247 54.0888 23.988L44.8615 30.6393C44.547 30.8655 44.1908 31.0265 43.8137 31.1128C43.4365 31.1992 43.0461 31.2092 42.6651 31.1422C42.2841 31.0753 41.9202 30.9328 41.5946 30.7229C41.2691 30.5131 40.9884 30.2403 40.7689 29.9202L34.3236 20.5186C34.8741 20.142 35.3247 19.6361 35.6365 19.0448C35.9483 18.4535 36.1118 17.7947 36.1127 17.1256C36.1127 16.0314 35.6802 14.9821 34.9101 14.2084C34.1401 13.4347 33.0957 13 32.0067 13C31.4677 13 30.934 13.1067 30.4361 13.3141C29.9382 13.5215 29.4858 13.8255 29.1049 14.2086C28.724 14.5918 28.4219 15.0466 28.2161 15.5471C28.0102 16.0476 27.9046 16.584 27.9052 17.1256C27.9061 17.7947 28.0696 18.4535 28.3813 19.0448C28.6931 19.6361 29.1438 20.142 29.6943 20.5186L23.2445 29.9202C23.0255 30.2401 22.7452 30.5129 22.42 30.7227C22.0948 30.9324 21.7313 31.0749 21.3507 31.1419C20.97 31.2088 20.5799 31.1989 20.2032 31.1126C19.8264 31.0263 19.4705 30.8654 19.1564 30.6393L9.92902 23.988C10.2633 23.5241 10.4419 22.9654 10.4389 22.3926C10.4389 21.668 10.1524 20.973 9.64243 20.4606C9.13243 19.9481 8.44073 19.6602 7.71949 19.6602C6.99825 19.6602 6.30655 19.9481 5.79655 20.4606C5.28655 20.973 5 21.668 5 22.3926C5 23.1177 5.28641 23.8132 5.79628 24.3263C6.30615 24.8395 6.99783 25.1283 7.71949 25.1295C8.00214 25.1289 8.2829 25.0834 8.55142 24.9947L15.7079 47.4382C16.0125 48.391 16.6091 49.2226 17.4124 49.8143C18.2157 50.4059 19.1847 50.7272 20.1807 50.7323H43.8014C44.8013 50.732 45.7752 50.4128 46.583 49.8209C47.3908 49.2289 47.9908 48.3946 48.2966 47.4382L55.4531 24.9947C55.72 25.0834 55.9993 25.1289 56.2805 25.1295C57.0022 25.1283 57.6939 24.8395 58.2037 24.3263C58.7136 23.8132 59 23.1177 59 22.3926C59 21.6703 58.7153 20.9773 58.2082 20.4653C57.7011 19.9533 57.0129 19.6638 56.2939 19.6602Z" fill="#FFCF0A"/>
<path d="M47.8718 46.5979H16.1464C15.2793 46.5979 14.5764 47.3041 14.5764 48.1753V50.3774C14.5764 51.2486 15.2793 51.9548 16.1464 51.9548H47.8718C48.7389 51.9548 49.4418 51.2486 49.4418 50.3774V48.1753C49.4418 47.3041 48.7389 46.5979 47.8718 46.5979Z" fill="#FEB700"/>
<path d="M32.0065 41.9735C33.7925 41.9735 35.2404 40.5188 35.2404 38.7243C35.2404 36.9298 33.7925 35.4751 32.0065 35.4751C30.2205 35.4751 28.7727 36.9298 28.7727 38.7243C28.7727 40.5188 30.2205 41.9735 32.0065 41.9735Z" fill="#1570FF"/>
<path d="M13.4535 41.1826C14.8047 41.1826 15.9001 40.082 15.9001 38.7244C15.9001 37.3667 14.8047 36.2661 13.4535 36.2661C12.1022 36.2661 11.0068 37.3667 11.0068 38.7244C11.0068 40.082 12.1022 41.1826 13.4535 41.1826Z" fill="#FF4D37"/>
<path d="M50.5597 41.1826C51.9109 41.1826 53.0063 40.082 53.0063 38.7244C53.0063 37.3667 51.9109 36.2661 50.5597 36.2661C49.2084 36.2661 48.113 37.3667 48.113 38.7244C48.113 40.082 49.2084 41.1826 50.5597 41.1826Z" fill="#FF4D37"/>
</svg>
