<svg width="64" height="64" viewBox="0 0 64 64" fill="none" xmlns="http://www.w3.org/2000/svg">
<g clip-path="url(#clip0_12215_77802)">
<path d="M56.011 30.0008C56.011 40.0568 42.2305 52.4627 35.5443 57.8741C34.5448 58.6824 33.2987 59.1233 32.0137 59.1233C30.7287 59.1233 29.4826 58.6824 28.4832 57.8741C21.8135 52.4627 8.01099 40.0568 8.01099 30.0008C8.01099 23.631 10.5395 17.5221 15.0404 13.018C19.5413 8.51381 25.6457 5.9834 32.0109 5.9834C38.3761 5.9834 44.4807 8.51381 48.9815 13.018C53.4824 17.5221 56.011 23.631 56.011 30.0008Z" fill="#C4CDD4"/>
<path d="M37.5673 38.7219C37.5659 40.1986 36.9787 41.6143 35.9348 42.6579C34.8908 43.7015 33.4756 44.2877 32 44.2877C30.5249 44.2877 29.1103 43.7013 28.0673 42.6576C27.0242 41.6138 26.4382 40.1981 26.4382 38.7219" fill="#282B33"/>
<path d="M27.6344 31.9259C27.6736 32.4245 27.526 32.9198 27.2203 33.3154C26.9147 33.7111 26.4728 33.9787 25.9808 34.0662C23.7759 34.4965 19.7796 34.855 17.0841 32.803C14.3887 30.751 13.6721 26.8345 13.4846 24.5674C13.4465 24.0684 13.5944 23.573 13.8998 23.1767C14.2052 22.7805 14.6464 22.5115 15.1383 22.4216C17.3707 21.9913 21.3395 21.6327 24.035 23.6848C26.7304 25.7368 27.447 29.6533 27.6344 31.9259Z" fill="#282B33"/>
<path d="M36.3712 31.9259C36.332 32.4245 36.4796 32.9198 36.7853 33.3154C37.091 33.7111 37.5328 33.9787 38.0248 34.0662C40.2628 34.4965 44.2316 34.855 46.9215 32.803C49.6114 30.751 50.3391 26.8345 50.521 24.5674C50.5616 24.0679 50.4146 23.5712 50.1088 23.1744C49.803 22.7776 49.3604 22.5092 48.8673 22.4216C46.6294 21.9913 42.6606 21.6327 39.9707 23.6848C37.2807 25.7368 36.5531 29.6533 36.3712 31.9259Z" fill="#282B33"/>
<path d="M31.9999 36.659C33.4886 36.659 34.6953 36.3428 34.6953 35.9529C34.6953 35.5629 33.4886 35.2468 31.9999 35.2468C30.5112 35.2468 29.3044 35.5629 29.3044 35.9529C29.3044 36.3428 30.5112 36.659 31.9999 36.659Z" fill="#282B33"/>
</g>
<defs>
<clipPath id="clip0_12215_77802">
<rect width="48" height="53.1429" fill="white" transform="translate(8 6)"/>
</clipPath>
</defs>
</svg>
