<svg width="64" height="64" viewBox="0 0 64 64" fill="none" xmlns="http://www.w3.org/2000/svg">
<path d="M52.6298 48.1872H43.8413V43.4685H52.6298C52.8467 43.4685 53.0615 43.4258 53.2618 43.3428C53.4622 43.2598 53.6443 43.1382 53.7977 42.9848C53.951 42.8315 54.0727 42.6494 54.1557 42.449C54.2387 42.2486 54.2814 42.0339 54.2814 41.817V26.2335C54.2814 26.0166 54.2387 25.8019 54.1557 25.6015C54.0727 25.4011 53.951 25.219 53.7977 25.0657C53.6443 24.9123 53.4622 24.7907 53.2618 24.7077C53.0615 24.6247 52.8467 24.582 52.6298 24.582H43.8413V19.8633H52.6298C54.3193 19.8633 55.9396 20.5344 57.1342 21.7291C58.3289 22.9237 59.0001 24.544 59.0001 26.2335V41.8642C58.9876 43.5455 58.311 45.1537 57.1177 46.3382C55.9244 47.5226 54.3112 48.1873 52.6298 48.1872Z" fill="#FEB700"/>
<path d="M43.1096 8.46875H16.1776C13.1872 8.46875 10.7629 10.893 10.7629 13.8835V52.6475C10.7629 55.638 13.1872 58.0622 16.1776 58.0622H43.1096C46.1 58.0622 48.5243 55.638 48.5243 52.6475V13.8835C48.5243 10.893 46.1 8.46875 43.1096 8.46875Z" fill="#FFCF0A"/>
<path d="M20.9319 20.4653H20.9201C19.9038 20.4653 19.0798 21.2893 19.0798 22.3056V50.724C19.0798 51.7403 19.9038 52.5643 20.9201 52.5643H20.9319C21.9483 52.5643 22.7722 51.7403 22.7722 50.724V22.3056C22.7722 21.2893 21.9483 20.4653 20.9319 20.4653Z" fill="#FEB700"/>
<path d="M38.3672 20.4653H38.3554C37.3391 20.4653 36.5151 21.2893 36.5151 22.3056V50.724C36.5151 51.7403 37.3391 52.5643 38.3554 52.5643H38.3672C39.3836 52.5643 40.2075 51.7403 40.2075 50.724V22.3056C40.2075 21.2893 39.3836 20.4653 38.3672 20.4653Z" fill="#FEB700"/>
<path d="M29.6497 20.4653H29.6379C28.6215 20.4653 27.7976 21.2893 27.7976 22.3056V50.724C27.7976 51.7403 28.6215 52.5643 29.6379 52.5643H29.6497C30.6661 52.5643 31.49 51.7403 31.49 50.724V22.3056C31.49 21.2893 30.6661 20.4653 29.6497 20.4653Z" fill="#FEB700"/>
<path d="M43.1095 8.46876H16.1776C15.4661 8.46721 14.7613 8.6062 14.1037 8.87777C13.446 9.14933 12.8485 9.5481 12.3454 10.0512C11.8423 10.5543 11.4435 11.1518 11.1719 11.8095C10.9004 12.4671 10.7614 13.172 10.763 13.8835V23.9107C11.6547 24.3647 12.6406 24.6031 13.6413 24.6067C14.8636 24.6025 16.0611 24.261 17.1018 23.6199C18.1425 22.9789 18.986 22.0631 19.5397 20.9733C20.2345 21.5552 21.1108 21.8765 22.0171 21.8816C22.6934 21.8816 23.358 21.7053 23.9454 21.3702C24.5329 21.0351 25.023 20.5527 25.3673 19.9706C25.7447 20.7802 26.3442 21.466 27.0959 21.9484C27.8477 22.4308 28.7209 22.6899 29.6141 22.6956C30.8219 22.6975 31.9844 22.2361 32.8623 21.4065C33.7401 20.577 34.2664 19.4424 34.3328 18.2365H43.1686C43.2309 19.0293 43.5896 19.7695 44.1734 20.3095C44.7572 20.8495 45.5231 21.1497 46.3183 21.1503C47.1477 21.1477 47.9433 20.8219 48.5361 20.2419V13.8953C48.5377 13.1822 48.3983 12.4759 48.1262 11.8168C47.854 11.1577 47.4544 10.5589 46.9502 10.0547C46.446 9.55046 45.8471 9.15082 45.1881 8.87867C44.529 8.60651 43.8226 8.46721 43.1095 8.46876Z" fill="#E7900A"/>
<path d="M43.4756 5H13.0165C12.2264 5 11.4439 5.15562 10.714 5.45797C9.98405 5.76032 9.32083 6.20346 8.76217 6.76213C8.2035 7.3208 7.76042 7.98405 7.45807 8.71399C7.15572 9.44392 7 10.2263 7 11.0163V15.8648C7.06694 17.5768 7.79298 19.1967 9.02627 20.386C10.2596 21.5753 11.9046 22.242 13.618 22.2468C14.8403 22.2426 16.0378 21.9012 17.0785 21.2601C18.1192 20.619 18.9627 19.7032 19.5163 18.6134C20.2112 19.1954 21.0874 19.5166 21.9938 19.5218C22.6701 19.5217 23.3346 19.3454 23.9221 19.0103C24.5096 18.6752 24.9997 18.1928 25.344 17.6107C25.7231 18.4239 26.3262 19.1122 27.0825 19.5949C27.8389 20.0775 28.7172 20.3345 29.6144 20.3358C30.8222 20.3376 31.9847 19.8762 32.8625 19.0467C33.7404 18.2171 34.2667 17.0825 34.3331 15.8766H43.1688C43.2311 16.6694 43.5899 17.4096 44.1737 17.9496C44.7575 18.4897 45.5234 18.7899 46.3186 18.7904C47.1139 18.7899 47.8796 18.4897 48.4634 17.9496C49.0472 17.4096 49.4059 16.6694 49.4683 15.8766V11.0281C49.4714 9.43452 48.8421 7.90482 47.7186 6.77466C46.5951 5.6445 45.0691 5.00625 43.4756 5Z" fill="#F8FAFB"/>
</svg>
